<svg id="noun-construction-worker-1198839" xmlns="http://www.w3.org/2000/svg" width="35.979" height="40.43" viewBox="0 0 35.979 40.43">
  <path id="Path_951" data-name="Path 951" d="M28.162,36.934a3.072,3.072,0,0,1-.389-.027,6.564,6.564,0,0,0,.1,1.06c.249,1.421.89,2.52,1.481,2.6A15.073,15.073,0,0,0,32.773,46a8.439,8.439,0,0,0,2.741,1.848,5.54,5.54,0,0,0,4.217,0,8.489,8.489,0,0,0,2.829-1.936,15.155,15.155,0,0,0,3.335-5.355c.567-.166,1.161-1.229,1.4-2.586a6.561,6.561,0,0,0,.1-1.035l-.048,0H45.822a3.908,3.908,0,0,1-.038,1.235,2.98,2.98,0,0,1-.739,1.634.628.628,0,0,1-.188.114c-.01,0-.019,0-.029.006l-.083.009h-.023a.363.363,0,0,1-.053,0,.35.35,0,0,1-.187-.1v0a11.731,11.731,0,0,1-3.622,5.519,6.3,6.3,0,0,1-1.522.893l-.029.009-.606.185-.049.013c-.061.014-.117.04-.178.051a.487.487,0,0,1-.058.008l-.236.024c-.02,0-.039,0-.057,0a4.338,4.338,0,0,1-.507.05,5.246,5.246,0,0,1-3.176-1.187,11.7,11.7,0,0,1-3.686-5.569h0a.392.392,0,0,1-.185.1h0a.516.516,0,0,1-.433-.189,3.121,3.121,0,0,1-.681-1.579c-.009-.046-.012-.093-.019-.138.006-.376.026-.737.047-1.1H28.162Z" transform="translate(-19.769 -22.574)" fill="#ef672e"/>
  <path id="Path_952" data-name="Path 952" d="M45.784,69.687a13.259,13.259,0,0,0-2.67-5.263,6.393,6.393,0,0,0-3.955-2.19c-1.6-.373-3.532-.215-4.565-.536-.122,1.014-3.066,4.343-5,6.435L28.763,64.9a2.077,2.077,0,0,0,.765-1.869H26.357a2.092,2.092,0,0,0,.752,1.86l-.823,3.233c-1.93-2.089-4.875-5.419-5-6.432-1.034.322-2.967.164-4.566.535A6.457,6.457,0,0,0,12.6,64.626,13.634,13.634,0,0,0,10.1,69.685a3.878,3.878,0,0,0-.037,1.982,3.707,3.707,0,0,0,.308.856c1.669,3.159,10.453,4.134,17.559,4.134h.022c7.1,0,15.889-.971,17.559-4.133a3.676,3.676,0,0,0,.292-.774A3.905,3.905,0,0,0,45.784,69.687Z" transform="translate(-9.955 -36.228)" fill="#ef672e"/>
  <path id="Path_953" data-name="Path 953" d="M26.979,17.676H46.171a1.353,1.353,0,1,0,0-2.707H45.8a9.226,9.226,0,0,0-5.061-8.233l-.765,4.335a.707.707,0,0,1-.7.585.67.67,0,0,1-.123-.011.707.707,0,0,1-.573-.82l.872-4.953A1.85,1.85,0,0,0,37.884,5H35.265a1.849,1.849,0,0,0-1.571.873l.873,4.953a.708.708,0,0,1-.573.82.682.682,0,0,1-.124.011.708.708,0,0,1-.7-.585l-.765-4.335a9.223,9.223,0,0,0-5.06,8.232h-.369a1.353,1.353,0,0,0,0,2.707Z" transform="translate(-18.586 -5)" fill="#ef672e"/>
</svg>